<svg width="1200" height="800" viewBox="0 0 1200 800" fill="none" xmlns="http://www.w3.org/2000/svg">
  <rect width="1200" height="800" rx="48" fill="#020617"/>
  <circle cx="220" cy="220" r="170" fill="#8B5CF6" fill-opacity="0.18"/>
  <circle cx="940" cy="560" r="220" fill="#06B6D4" fill-opacity="0.14"/>
  <rect x="92" y="92" width="1016" height="616" rx="32" stroke="#475569" stroke-opacity="0.24"/>
  <rect x="136" y="138" width="260" height="44" rx="22" fill="#0F172A"/>
  <rect x="136" y="214" width="312" height="428" rx="28" fill="#0B1120"/>
  <rect x="476" y="214" width="312" height="428" rx="28" fill="#0B1120"/>
  <rect x="816" y="214" width="248" height="428" rx="28" fill="#0B1120"/>
  <rect x="172" y="252" width="240" height="66" rx="18" fill="#1E293B"/>
  <rect x="172" y="334" width="240" height="66" rx="18" fill="#1E293B"/>
  <rect x="172" y="416" width="240" height="66" rx="18" fill="#1E293B"/>
  <rect x="514" y="252" width="240" height="108" rx="18" fill="#111827" stroke="#334155"/>
  <rect x="514" y="380" width="240" height="108" rx="18" fill="#111827" stroke="#334155"/>
  <rect x="514" y="508" width="240" height="108" rx="18" fill="#111827" stroke="#334155"/>
  <rect x="850" y="256" width="160" height="20" rx="10" fill="#334155"/>
  <rect x="850" y="292" width="118" height="14" rx="7" fill="#475569"/>
  <rect x="850" y="334" width="160" height="20" rx="10" fill="#334155"/>
  <rect x="850" y="370" width="118" height="14" rx="7" fill="#475569"/>
</svg>
