<svg width="1200" height="800" viewBox="0 0 1200 800" fill="none" xmlns="http://www.w3.org/2000/svg">
  <rect width="1200" height="800" rx="48" fill="#0F172A"/>
  <circle cx="240" cy="180" r="180" fill="#22D3EE" fill-opacity="0.18"/>
  <circle cx="980" cy="620" r="240" fill="#34D399" fill-opacity="0.14"/>
  <rect x="82" y="96" width="1036" height="608" rx="32" stroke="#94A3B8" stroke-opacity="0.24"/>
  <rect x="130" y="142" width="420" height="38" rx="19" fill="#1E293B"/>
  <rect x="130" y="204" width="940" height="460" rx="28" fill="#111827"/>
  <rect x="176" y="258" width="220" height="120" rx="20" fill="#0EA5E9" fill-opacity="0.16"/>
  <rect x="430" y="258" width="220" height="120" rx="20" fill="#A855F7" fill-opacity="0.16"/>
  <rect x="684" y="258" width="220" height="120" rx="20" fill="#22C55E" fill-opacity="0.16"/>
  <rect x="176" y="418" width="728" height="186" rx="24" fill="#0B1220" stroke="#334155"/>
  <path d="M208 548L300 488L372 516L478 418L576 446L676 360L812 388" stroke="#22D3EE" stroke-width="10" stroke-linecap="round" stroke-linejoin="round"/>
  <path d="M208 548H832" stroke="#475569" stroke-width="4" stroke-linecap="round"/>
</svg>
