<svg width="1200" height="800" viewBox="0 0 1200 800" fill="none" xmlns="http://www.w3.org/2000/svg">
  <rect width="1200" height="800" rx="48" fill="#111827"/>
  <circle cx="930" cy="180" r="220" fill="#F97316" fill-opacity="0.15"/>
  <circle cx="260" cy="620" r="250" fill="#38BDF8" fill-opacity="0.12"/>
  <rect x="88" y="88" width="1024" height="624" rx="32" stroke="#64748B" stroke-opacity="0.25"/>
  <rect x="130" y="136" width="290" height="44" rx="22" fill="#0F172A"/>
  <rect x="130" y="210" width="540" height="420" rx="28" fill="#0B1220"/>
  <rect x="716" y="210" width="398" height="200" rx="28" fill="#0B1220"/>
  <rect x="716" y="434" width="398" height="196" rx="28" fill="#0B1220"/>
  <rect x="168" y="252" width="220" height="280" rx="22" fill="#1F2937"/>
  <rect x="420" y="252" width="220" height="280" rx="22" fill="#1F2937"/>
  <circle cx="830" cy="286" r="28" fill="#FB923C"/>
  <rect x="876" y="266" width="180" height="18" rx="9" fill="#334155"/>
  <rect x="876" y="296" width="120" height="14" rx="7" fill="#475569"/>
  <rect x="744" y="474" width="320" height="22" rx="11" fill="#334155"/>
  <rect x="744" y="512" width="260" height="22" rx="11" fill="#475569"/>
  <rect x="744" y="550" width="180" height="22" rx="11" fill="#64748B"/>
</svg>
